<?xml version="1.0" standalone="no"?>
<!DOCTYPE svg PUBLIC "-//W3C//DTD SVG 20010904//EN"
 "http://www.w3.org/TR/2001/REC-SVG-20010904/DTD/svg10.dtd">
<svg version="1.0" xmlns="http://www.w3.org/2000/svg"
 width="300.000000pt" height="120.000000pt" viewBox="0 0 300.000000 120.000000"
 preserveAspectRatio="xMidYMid meet">
<metadata>
Created by potrace 1.10, written by Peter Selinger 2001-2011
</metadata>
<g transform="translate(0.000000,120.000000) scale(0.100000,-0.100000)"
fill="#000000" stroke="none">
<path d="M960 530 c0 -358 2 -410 15 -410 13 0 15 52 15 410 0 358 -2 410 -15
410 -13 0 -15 -52 -15 -410z"/>
<path d="M590 835 c-25 -17 -49 -24 -87 -24 -37 -1 -56 -6 -65 -19 -20 -27
-125 -24 -156 5 -69 64 -182 14 -182 -82 0 -27 22 -75 93 -198 50 -89 93 -165
95 -169 2 -3 -17 -6 -42 -5 -62 3 -89 -24 -90 -90 l-1 -48 235 0 235 0 3 41
c4 59 -29 97 -87 99 l-43 1 -83 144 -83 145 51 3 c38 2 53 -1 59 -12 7 -12 25
-16 68 -16 32 0 62 -5 65 -10 3 -6 19 -17 35 -25 27 -14 34 -13 112 21 92 40
103 48 94 63 -4 6 -38 -3 -92 -26 l-85 -36 -35 19 -34 19 0 76 c0 76 0 77 33
96 l33 20 84 -32 c82 -31 105 -34 98 -13 -3 9 -171 79 -186 77 -4 0 -23 -11
-42 -24z m-352 -81 c24 -17 30 -62 10 -82 -16 -16 -63 -15 -75 1 -23 29 -23
48 2 73 28 28 33 29 63 8z m280 4 c14 -14 16 -76 3 -96 -5 -8 -17 -12 -27 -10
-15 2 -20 13 -22 47 -2 24 -1 50 2 57 7 17 28 18 44 2z m-83 -51 l2 -37 -61 0
-62 0 4 38 4 37 55 -1 55 -1 3 -36z m-50 -225 c41 -73 75 -134 75 -136 0 -2
-30 -2 -67 0 l-68 3 -72 123 c-40 68 -72 126 -72 129 -1 3 11 4 27 2 15 -2 40
4 57 16 22 13 32 16 38 7 4 -6 41 -71 82 -144z m-26 -178 c21 -3 54 -1 74 4
55 15 141 -6 145 -36 l3 -22 -191 0 -191 0 3 22 c2 17 14 25 48 34 25 7 51 10
58 8 8 -2 31 -7 51 -10z"/>
<path d="M2375 725 c-57 -20 -91 -63 -105 -132 -15 -69 -1 -163 28 -203 68
-91 220 -85 276 11 38 65 31 221 -12 275 -44 53 -120 73 -187 49z m94 -72 c55
-45 52 -212 -4 -249 -61 -40 -105 13 -105 126 0 97 20 133 76 139 7 0 22 -7
33 -16z"/>
<path d="M1100 728 c0 -2 -1 -92 -3 -201 l-2 -197 48 0 47 0 0 80 0 80 60 0
60 0 0 38 0 38 -59 -4 -59 -4 -3 46 -4 46 70 0 c78 0 95 9 95 52 l0 28 -125 0
c-69 0 -125 -1 -125 -2z m80 -206 c0 -5 -9 -17 -20 -27 -20 -18 -20 -17 -20
35 l0 53 20 -26 c11 -14 20 -29 20 -35z"/>
<path d="M1400 531 l0 -201 48 0 47 0 -2 197 -2 198 -46 3 -45 3 0 -200z"/>
<path d="M1563 722 c-8 -5 6 -35 43 -95 30 -49 54 -91 54 -93 0 -3 -27 -47
-59 -99 -32 -52 -56 -96 -53 -99 3 -3 24 -6 46 -6 40 0 42 2 77 66 l36 66 41
-66 c39 -63 43 -66 79 -66 66 0 67 8 2 108 -32 50 -59 95 -59 98 0 3 23 44 50
91 28 47 50 89 50 95 0 5 -19 8 -42 6 -39 -3 -44 -7 -73 -55 -16 -29 -32 -53
-35 -53 -3 0 -14 16 -24 35 -30 55 -54 75 -89 75 -18 0 -37 -4 -44 -8z m163
-132 c17 0 19 -6 16 -39 -2 -23 3 -51 13 -72 l18 -33 -28 18 c-15 10 -35 16
-46 13 -16 -4 -18 0 -13 37 5 32 1 53 -16 87 l-22 44 29 -27 c16 -16 38 -28
49 -28z"/>
<path d="M1930 530 l0 -200 100 0 c141 0 190 29 190 113 0 31 -7 46 -32 71
l-33 31 23 22 c15 15 22 34 22 58 0 80 -43 105 -180 105 l-90 0 0 -200z m171
119 c14 -14 18 -27 13 -42 -9 -29 -22 -37 -61 -37 -33 0 -33 0 -33 50 0 49 1
50 30 50 17 0 39 -9 51 -21z m-91 -115 c0 -6 -7 -17 -15 -24 -19 -16 -30 9
-20 48 6 26 7 26 21 8 8 -11 14 -25 14 -32z m108 -47 c6 -5 12 -22 12 -38 0
-34 -32 -59 -77 -59 l-33 0 0 60 0 60 43 -6 c23 -4 48 -11 55 -17z"/>
<path d="M2620 690 l0 -40 51 0 51 0 -3 -160 -4 -160 48 0 48 0 -3 160 -3 160
43 0 c35 0 44 4 54 24 23 51 11 56 -142 56 l-140 0 0 -40z m157 -8 c10 -6 10
-12 -2 -28 -15 -19 -15 -19 -30 0 -12 16 -12 22 -2 28 6 4 14 8 17 8 3 0 11
-4 17 -8z"/>
</g>
</svg>
